# xmcd
#
# Track frame offsets:
# 150
# 10611
# 21029
# 33220
# 46684
# 55295
# 66986
# 77478
# 89776
# 102419
# 112572
#
# Disc length: 1676 seconds
#
#
# Revision: 0
# Processed by: cddbd v1.5.2PL0 Copyright (c) Steve Scherf et al.
# Submitted via: FreeRIP 2.945 
#
DISCID=79068a0b
DTITLE=Bill Anderson - Always Remember
DYEAR=1900
DGENRE=Country
TTITLE0=Always Remember
TTITLE1=Kind Of Needin' I Need
TTITLE2=When I Loved Her
TTITLE3=Stranger In My Place
TTITLE4=One Two Many Mornings
TTITLE5=You're Still The Only One
TTITLE6=I'm Alright
TTITLE7=Come Sundown
TTITLE8=Feel Free To Go
TTITLE9=Help Me Make It Thru The Night
TTITLE10=Lonesome Is The Mother Of Soul
EXTD=
EXTT0=
EXTT1=
EXTT2=
EXTT3=
EXTT4=
EXTT5=
EXTT6=
EXTT7=
EXTT8=
EXTT9=
EXTT10=
PLAYORDER=
